{
  "accessors": [
    {
      "bufferView": 0,
      "componentType": 5126,
      "count": 1053,
      "max": [
        0.015169834718108177,
        0.010346658527851105,
        0.019564704969525337
      ],
      "min": [
        0.0036662316415458918,
        -0.009760785847902298,
        0.0028629256412386894
      ],
      "name": "outer-ring/POSITION",
      "type": "VEC3"
    },
    {
      "bufferView": 0,
      "byteOffset": 12,
      "componentType": 5126,
      "count": 1053,
      "name": "outer-ring/NORMAL",
      "type": "VEC3"
    },
    {
      "bufferView": 0,
      "byteOffset": 24,
      "componentType": 5126,
      "count": 1053,
      "name": "outer-ring/TEXCOORD_0",
      "type": "VEC2"
    },
    {
      "bufferView": 1,
      "componentType": 5125,
      "count": 5760,
      "name": "outer-ring/INDICES",
      "type": "SCALAR"
    },
    {
      "bufferView": 2,
      "componentType": 5126,
      "count": 7754,
      "max": [
        0.008142191916704178,
        -0.003597730305045843,
        0.017567047849297523
      ],
      "min": [
        -0.009671684354543686,
        -0.014021754264831543,
        0.0022725684102624655
      ],
      "name": "inside-ball/POSITION",
      "type": "VEC3"
    },
    {
      "bufferView": 2,
      "byteOffset": 12,
      "componentType": 5126,
      "count": 7754,
      "name": "inside-ball/NORMAL",
      "type": "VEC3"
    },
    {
      "bufferView": 2,
      "byteOffset": 24,
      "componentType": 5126,
      "count": 7754,
      "name": "inside-ball/TEXCOORD_0",
      "type": "VEC2"
    },
    {
      "bufferView": 3,
      "componentType": 5125,
      "count": 44736,
      "name": "inside-ball/INDICES",
      "type": "SCALAR"
    },
    {
      "bufferView": 4,
      "componentType": 5126,
      "count": 11522,
      "max": [
        0.015169835649430752,
        0.014288871549069881,
        0.019687676802277565
      ],
      "min": [
        -0.012823709286749363,
        -0.0137029979377985,
        -0.008379433304071426
      ],
      "name": "outside-ball/POSITION",
      "type": "VEC3"
    },
    {
      "bufferView": 4,
      "byteOffset": 12,
      "componentType": 5126,
      "count": 11522,
      "name": "outside-ball/NORMAL",
      "type": "VEC3"
    },
    {
      "bufferView": 4,
      "byteOffset": 24,
      "componentType": 5126,
      "count": 11522,
      "name": "outside-ball/TEXCOORD_0",
      "type": "VEC2"
    },
    {
      "bufferView": 5,
      "componentType": 5125,
      "count": 67680,
      "name": "outside-ball/INDICES",
      "type": "SCALAR"
    },
    {
      "bufferView": 6,
      "componentType": 5126,
      "count": 52825,
      "max": [
        0.019987821578979492,
        0.019987815991044044,
        -0.0179744940251112
      ],
      "min": [
        -0.019987821578979492,
        -0.019987815991044044,
        -0.019508449360728264
      ],
      "name": "base/POSITION",
      "type": "VEC3"
    },
    {
      "bufferView": 6,
      "byteOffset": 12,
      "componentType": 5126,
      "count": 52825,
      "name": "base/NORMAL",
      "type": "VEC3"
    },
    {
      "bufferView": 6,
      "byteOffset": 24,
      "componentType": 5126,
      "count": 52825,
      "name": "base/TEXCOORD_0",
      "type": "VEC2"
    },
    {
      "bufferView": 7,
      "componentType": 5125,
      "count": 303480,
      "name": "base/INDICES",
      "type": "SCALAR"
    },
    {
      "bufferView": 8,
      "componentType": 5126,
      "count": 14577,
      "max": [
        0.010317138396203518,
        0.010317138396203518,
        -0.007726291194558144
      ],
      "min": [
        -0.010317138396203518,
        -0.010317138396203518,
        -0.01624404452741146
      ],
      "name": "pillar/POSITION",
      "type": "VEC3"
    },
    {
      "bufferView": 8,
      "byteOffset": 12,
      "componentType": 5126,
      "count": 14577,
      "name": "pillar/NORMAL",
      "type": "VEC3"
    },
    {
      "bufferView": 8,
      "byteOffset": 24,
      "componentType": 5126,
      "count": 14577,
      "name": "pillar/TEXCOORD_0",
      "type": "VEC2"
    },
    {
      "bufferView": 9,
      "componentType": 5125,
      "count": 86016,
      "name": "pillar/INDICES",
      "type": "SCALAR"
    }
  ],
  "asset": {
    "copyright": "Copyright (c) 2018-2020 Chukong Technologies Inc.",
    "generator": "FBX-glTF-conv",
    "version": "2.0"
  },
  "bufferViews": [
    {
      "buffer": 0,
      "byteLength": 33696,
      "byteStride": 32,
      "name": "outer-ring",
      "target": 34962
    },
    {
      "buffer": 0,
      "byteLength": 23040,
      "byteOffset": 33696
    },
    {
      "buffer": 0,
      "byteLength": 248128,
      "byteOffset": 56736,
      "byteStride": 32,
      "name": "inside-ball",
      "target": 34962
    },
    {
      "buffer": 0,
      "byteLength": 178944,
      "byteOffset": 304864
    },
    {
      "buffer": 0,
      "byteLength": 368704,
      "byteOffset": 483808,
      "byteStride": 32,
      "name": "outside-ball",
      "target": 34962
    },
    {
      "buffer": 0,
      "byteLength": 270720,
      "byteOffset": 852512
    },
    {
      "buffer": 0,
      "byteLength": 1690400,
      "byteOffset": 1123232,
      "byteStride": 32,
      "name": "base",
      "target": 34962
    },
    {
      "buffer": 0,
      "byteLength": 1213920,
      "byteOffset": 2813632
    },
    {
      "buffer": 0,
      "byteLength": 466464,
      "byteOffset": 4027552,
      "byteStride": 32,
      "name": "pillar",
      "target": 34962
    },
    {
      "buffer": 0,
      "byteLength": 344064,
      "byteOffset": 4494016
    }
  ],
  "buffers": [
    {
      "byteLength": 4838080,
      "uri": "out.bin"
    }
  ],
  "materials": [
    {
      "name": "03 - Default",
      "pbrMetallicRoughness": {
        "baseColorFactor": [
          0.5879999995231628,
          0.5879999995231628,
          0.5879999995231628,
          1.0
        ],
        "metallicFactor": 0.4000000059604645,
        "roughnessFactor": 0.7071067690849304
      }
    },
    {
      "name": "02 - Default",
      "pbrMetallicRoughness": {
        "baseColorFactor": [
          0.9686275124549866,
          0.9686275124549866,
          0.9686275124549866,
          1.0
        ],
        "metallicFactor": 0.4000000059604645,
        "roughnessFactor": 0.7071067690849304
      }
    }
  ],
  "meshes": [
    {
      "name": "outer-ring",
      "primitives": [
        {
          "attributes": {
            "NORMAL": 1,
            "POSITION": 0,
            "TEXCOORD_0": 2
          },
          "indices": 3,
          "material": 0
        }
      ]
    },
    {
      "name": "inside-ball",
      "primitives": [
        {
          "attributes": {
            "NORMAL": 5,
            "POSITION": 4,
            "TEXCOORD_0": 6
          },
          "indices": 7,
          "material": 1
        }
      ]
    },
    {
      "name": "outside-ball",
      "primitives": [
        {
          "attributes": {
            "NORMAL": 9,
            "POSITION": 8,
            "TEXCOORD_0": 10
          },
          "indices": 11,
          "material": 0
        }
      ]
    },
    {
      "name": "base",
      "primitives": [
        {
          "attributes": {
            "NORMAL": 13,
            "POSITION": 12,
            "TEXCOORD_0": 14
          },
          "indices": 15,
          "material": 0
        }
      ]
    },
    {
      "name": "pillar",
      "primitives": [
        {
          "attributes": {
            "NORMAL": 17,
            "POSITION": 16,
            "TEXCOORD_0": 18
          },
          "indices": 19,
          "material": 0
        }
      ]
    }
  ],
  "nodes": [
    {
      "mesh": 0,
      "name": "outer-ring",
      "rotation": [
        0.44765612483024597,
        0.5085806250572205,
        0.5663754343986511,
        -0.4692212641239166
      ],
      "scale": [
        6.899746417999268,
        6.8997416496276855,
        6.899745464324951
      ]
    },
    {
      "mesh": 1,
      "name": "inside-ball",
      "rotation": [
        -0.7071067690849304,
        -3.9227774806249727e-08,
        -1.479392963688042e-08,
        0.7071067690849304
      ],
      "scale": [
        6.899748802185059,
        6.899750709533691,
        6.899745941162109
      ]
    },
    {
      "mesh": 2,
      "name": "outside-ball",
      "rotation": [
        0.44765612483024597,
        0.5085806250572205,
        0.5663754343986511,
        -0.4692212641239166
      ],
      "scale": [
        6.899746894836426,
        6.8997416496276855,
        6.899745464324951
      ]
    },
    {
      "mesh": 3,
      "name": "base",
      "rotation": [
        -0.5040181279182434,
        -0.49594929814338684,
        -0.49594929814338684,
        0.5040181279182434
      ],
      "scale": [
        5.686001300811768,
        5.686001300811768,
        6.899746417999268
      ]
    },
    {
      "mesh": 4,
      "name": "pillar",
      "rotation": [
        -0.5040181279182434,
        -0.49594929814338684,
        -0.49594929814338684,
        0.5040181279182434
      ],
      "scale": [
        6.899750709533691,
        6.899750709533691,
        6.899746417999268
      ]
    }
  ],
  "scenes": [
    {
      "nodes": [
        0,
        1,
        2,
        3,
        4
      ]
    }
  ]
}