{
  "accessors": [
    {
      "bufferView": 0,
      "componentType": 5126,
      "count": 15588,
      "max": [
        0.1019434854388237,
        0.18708309531211853,
        0.2621367871761322
      ],
      "min": [
        -0.10190392285585403,
        -0.0610305592417717,
        0.016291599720716476
      ],
      "name": "zzm_01/POSITION",
      "type": "VEC3"
    },
    {
      "bufferView": 0,
      "byteOffset": 12,
      "componentType": 5126,
      "count": 15588,
      "name": "zzm_01/NORMAL",
      "type": "VEC3"
    },
    {
      "bufferView": 0,
      "byteOffset": 24,
      "componentType": 5126,
      "count": 15588,
      "name": "zzm_01/TEXCOORD_0",
      "type": "VEC2"
    },
    {
      "bufferView": 1,
      "componentType": 5125,
      "count": 43242,
      "name": "zzm_01/INDICES",
      "type": "SCALAR"
    }
  ],
  "asset": {
    "copyright": "Copyright (c) 2018-2020 Chukong Technologies Inc.",
    "generator": "FBX-glTF-conv",
    "version": "2.0"
  },
  "bufferViews": [
    {
      "buffer": 0,
      "byteLength": 498816,
      "byteStride": 32,
      "name": "zzm_01",
      "target": 34962
    },
    {
      "buffer": 0,
      "byteLength": 172968,
      "byteOffset": 498816
    }
  ],
  "buffers": [
    {
      "byteLength": 671784,
      "uri": "out.bin"
    }
  ],
  "meshes": [
    {
      "name": "zzm_01",
      "primitives": [
        {
          "attributes": {
            "NORMAL": 1,
            "POSITION": 0,
            "TEXCOORD_0": 2
          },
          "indices": 3
        }
      ]
    }
  ],
  "nodes": [
    {
      "mesh": 0,
      "name": "zzm_01",
      "rotation": [
        -0.7071067690849304,
        -0.0,
        0.0,
        0.7071067690849304
      ]
    }
  ],
  "scenes": [
    {
      "nodes": [
        0
      ]
    }
  ]
}