{
  "accessors": [
    {
      "bufferView": 0,
      "componentType": 5126,
      "count": 10317,
      "max": [
        0.8561976552009583,
        -0.34814614057540894,
        0.13277550041675568
      ],
      "min": [
        -0.7206819653511047,
        -1.883764386177063,
        0.004579981788992882
      ],
      "name": "MatPreviewMesh-Corduroy_SM/POSITION",
      "type": "VEC3"
    },
    {
      "bufferView": 0,
      "byteOffset": 12,
      "componentType": 5126,
      "count": 10317,
      "name": "MatPreviewMesh-Corduroy_SM/NORMAL",
      "type": "VEC3"
    },
    {
      "bufferView": 0,
      "byteOffset": 24,
      "componentType": 5126,
      "count": 10317,
      "name": "MatPreviewMesh-Corduroy_SM/TEXCOORD_0",
      "type": "VEC2"
    },
    {
      "bufferView": 0,
      "byteOffset": 32,
      "componentType": 5126,
      "count": 10317,
      "name": "MatPreviewMesh-Corduroy_SM/TEXCOORD_1",
      "type": "VEC2"
    },
    {
      "bufferView": 0,
      "byteOffset": 40,
      "componentType": 5126,
      "count": 10317,
      "name": "MatPreviewMesh-Corduroy_SM/TEXCOORD_2",
      "type": "VEC2"
    },
    {
      "bufferView": 0,
      "byteOffset": 48,
      "componentType": 5126,
      "count": 10317,
      "name": "MatPreviewMesh-Corduroy_SM/COLOR_0",
      "type": "VEC4"
    },
    {
      "bufferView": 1,
      "componentType": 5125,
      "count": 57777,
      "name": "MatPreviewMesh-Corduroy_SM/INDICES",
      "type": "SCALAR"
    },
    {
      "bufferView": 2,
      "componentType": 5126,
      "count": 3379,
      "max": [
        0.855974018573761,
        -0.3485397398471832,
        0.13319002091884613
      ],
      "min": [
        -0.7200546264648438,
        -1.8833403587341309,
        0.004021366126835346
      ],
      "name": "MatPreviewMesh-Corduroy_SM/POSITION",
      "type": "VEC3"
    },
    {
      "bufferView": 2,
      "byteOffset": 12,
      "componentType": 5126,
      "count": 3379,
      "name": "MatPreviewMesh-Corduroy_SM/NORMAL",
      "type": "VEC3"
    },
    {
      "bufferView": 2,
      "byteOffset": 24,
      "componentType": 5126,
      "count": 3379,
      "name": "MatPreviewMesh-Corduroy_SM/TEXCOORD_0",
      "type": "VEC2"
    },
    {
      "bufferView": 2,
      "byteOffset": 32,
      "componentType": 5126,
      "count": 3379,
      "name": "MatPreviewMesh-Corduroy_SM/TEXCOORD_1",
      "type": "VEC2"
    },
    {
      "bufferView": 2,
      "byteOffset": 40,
      "componentType": 5126,
      "count": 3379,
      "name": "MatPreviewMesh-Corduroy_SM/TEXCOORD_2",
      "type": "VEC2"
    },
    {
      "bufferView": 2,
      "byteOffset": 48,
      "componentType": 5126,
      "count": 3379,
      "name": "MatPreviewMesh-Corduroy_SM/COLOR_0",
      "type": "VEC4"
    },
    {
      "bufferView": 3,
      "componentType": 5125,
      "count": 17334,
      "name": "MatPreviewMesh-Corduroy_SM/INDICES",
      "type": "SCALAR"
    },
    {
      "bufferView": 4,
      "componentType": 5126,
      "count": 281,
      "max": [
        0.8561040759086609,
        -0.3463195562362671,
        0.12960943579673767
      ],
      "min": [
        -0.72269606590271,
        -1.8836435079574585,
        -0.00015541599714197218
      ],
      "name": "MatPreviewMesh-Corduroy_SM/POSITION",
      "type": "VEC3"
    },
    {
      "bufferView": 4,
      "byteOffset": 12,
      "componentType": 5126,
      "count": 281,
      "name": "MatPreviewMesh-Corduroy_SM/NORMAL",
      "type": "VEC3"
    },
    {
      "bufferView": 4,
      "byteOffset": 24,
      "componentType": 5126,
      "count": 281,
      "name": "MatPreviewMesh-Corduroy_SM/TEXCOORD_0",
      "type": "VEC2"
    },
    {
      "bufferView": 4,
      "byteOffset": 32,
      "componentType": 5126,
      "count": 281,
      "name": "MatPreviewMesh-Corduroy_SM/TEXCOORD_1",
      "type": "VEC2"
    },
    {
      "bufferView": 4,
      "byteOffset": 40,
      "componentType": 5126,
      "count": 281,
      "name": "MatPreviewMesh-Corduroy_SM/TEXCOORD_2",
      "type": "VEC2"
    },
    {
      "bufferView": 4,
      "byteOffset": 48,
      "componentType": 5126,
      "count": 281,
      "name": "MatPreviewMesh-Corduroy_SM/COLOR_0",
      "type": "VEC4"
    },
    {
      "bufferView": 5,
      "componentType": 5125,
      "count": 1155,
      "name": "MatPreviewMesh-Corduroy_SM/INDICES",
      "type": "SCALAR"
    },
    {
      "bufferView": 6,
      "componentType": 5126,
      "count": 24,
      "max": [
        0.8065046668052673,
        -0.3848864734172821,
        0.08125461637973785
      ],
      "min": [
        -0.7080877423286438,
        -1.8994789123535156,
        0.025757772848010063
      ],
      "name": "UCX_MatPreviewMesh-Corduroy_SM/POSITION",
      "type": "VEC3"
    },
    {
      "bufferView": 6,
      "byteOffset": 12,
      "componentType": 5126,
      "count": 24,
      "name": "UCX_MatPreviewMesh-Corduroy_SM/NORMAL",
      "type": "VEC3"
    },
    {
      "bufferView": 7,
      "componentType": 5125,
      "count": 36,
      "name": "UCX_MatPreviewMesh-Corduroy_SM/INDICES",
      "type": "SCALAR"
    }
  ],
  "asset": {
    "copyright": "Copyright (c) 2018-2020 Chukong Technologies Inc.",
    "generator": "FBX-glTF-conv",
    "version": "2.0"
  },
  "bufferViews": [
    {
      "buffer": 0,
      "byteLength": 660288,
      "byteStride": 64,
      "name": "MatPreviewMesh-Corduroy_SM",
      "target": 34962
    },
    {
      "buffer": 0,
      "byteLength": 231108,
      "byteOffset": 660288
    },
    {
      "buffer": 0,
      "byteLength": 216256,
      "byteOffset": 891396,
      "byteStride": 64,
      "name": "MatPreviewMesh-Corduroy_SM",
      "target": 34962
    },
    {
      "buffer": 0,
      "byteLength": 69336,
      "byteOffset": 1107652
    },
    {
      "buffer": 0,
      "byteLength": 17984,
      "byteOffset": 1176988,
      "byteStride": 64,
      "name": "MatPreviewMesh-Corduroy_SM",
      "target": 34962
    },
    {
      "buffer": 0,
      "byteLength": 4620,
      "byteOffset": 1194972
    },
    {
      "buffer": 0,
      "byteLength": 576,
      "byteOffset": 1199592,
      "byteStride": 24,
      "name": "UCX_MatPreviewMesh-Corduroy_SM",
      "target": 34962
    },
    {
      "buffer": 0,
      "byteLength": 144,
      "byteOffset": 1200168
    }
  ],
  "buffers": [
    {
      "byteLength": 1200312,
      "uri": "out.bin"
    }
  ],
  "meshes": [
    {
      "name": "MatPreviewMesh-Corduroy_SM",
      "primitives": [
        {
          "attributes": {
            "COLOR_0": 5,
            "NORMAL": 1,
            "POSITION": 0,
            "TEXCOORD_0": 2,
            "TEXCOORD_1": 3,
            "TEXCOORD_2": 4
          },
          "indices": 6
        }
      ]
    },
    {
      "name": "MatPreviewMesh-Corduroy_SM",
      "primitives": [
        {
          "attributes": {
            "COLOR_0": 12,
            "NORMAL": 8,
            "POSITION": 7,
            "TEXCOORD_0": 9,
            "TEXCOORD_1": 10,
            "TEXCOORD_2": 11
          },
          "indices": 13
        }
      ]
    },
    {
      "name": "MatPreviewMesh-Corduroy_SM",
      "primitives": [
        {
          "attributes": {
            "COLOR_0": 19,
            "NORMAL": 15,
            "POSITION": 14,
            "TEXCOORD_0": 16,
            "TEXCOORD_1": 17,
            "TEXCOORD_2": 18
          },
          "indices": 20
        }
      ]
    },
    {
      "name": "UCX_MatPreviewMesh-Corduroy_SM",
      "primitives": [
        {
          "attributes": {
            "NORMAL": 22,
            "POSITION": 21
          },
          "indices": 23
        }
      ]
    }
  ],
  "nodes": [
    {
      "children": [
        1,
        2,
        3
      ],
      "name": "MatPreviewMesh-Corduroy_SM",
      "rotation": [
        -0.7071067690849304,
        -0.0,
        0.0,
        0.7071067690849304
      ]
    },
    {
      "mesh": 0,
      "name": "MatPreviewMesh-Corduroy_SM_LOD0"
    },
    {
      "mesh": 1,
      "name": "MatPreviewMesh-Corduroy_SM_LOD1"
    },
    {
      "mesh": 2,
      "name": "MatPreviewMesh-Corduroy_SM_LOD2"
    },
    {
      "mesh": 3,
      "name": "UCX_MatPreviewMesh-Corduroy_SM_LOD0",
      "rotation": [
        -0.7071067690849304,
        -0.0,
        0.0,
        0.7071067690849304
      ]
    }
  ],
  "scenes": [
    {
      "nodes": [
        0,
        4
      ]
    }
  ]
}